<svg width="96" height="57" viewBox="0 0 96 57" fill="none" xmlns="http://www.w3.org/2000/svg" xmlns:xlink="http://www.w3.org/1999/xlink">
<g clip-path="url(#clip0_21_7)">
<rect x="41.5455" y="16.9091" width="20" height="28" rx="10" fill="url(#pattern0_21_7)"/>
<path d="M59.9373 38.0921C59.8862 37.8978 59.0825 38.1659 58.9804 38.0417C58.8783 37.9176 59.5461 36.5088 59.3369 36.2872C59.1277 36.0656 57.987 36.9944 57.8713 36.8863C57.756 36.7783 57.6939 35.876 57.5249 35.8072C57.3558 35.7384 56.407 37.5855 56.1723 37.4588C55.9378 37.3317 55.8282 34.3786 55.6847 34.3566C55.5413 34.3345 54.8204 34.996 54.7086 35.0003C54.5968 35.0043 53.4929 33.4701 53.3002 33.5207C53.1076 33.5713 52.901 35.4501 52.8015 35.5013C52.702 35.5525 51.7491 35.3311 51.635 35.4209C51.5209 35.5106 52.8777 38.1358 52.7357 38.3619C52.594 38.5879 50.8596 37.4461 50.7462 37.5892C50.6328 37.7322 51.0225 38.5483 50.9752 38.6991C50.9275 38.8499 49.4776 38.6021 49.4045 38.8982C49.3313 39.1943 50.6058 40.0922 50.5777 40.2506C50.5496 40.409 49.7182 40.5707 49.7693 40.765C49.8204 40.9594 52.5412 41.6171 52.7398 41.7268C52.9382 41.8362 52.1248 42.7346 52.2968 42.8183C52.4964 42.9156 53.3195 42.2988 55.168 41.7745L55.6165 43.4805C55.6362 43.5554 55.6848 43.6194 55.7517 43.6585C55.8186 43.6975 55.8983 43.7084 55.9732 43.6887C56.0481 43.669 56.1121 43.6204 56.1511 43.5535C56.1902 43.4866 56.201 43.4069 56.1814 43.332L55.7329 41.626C57.6 41.1736 58.6203 41.3058 58.7462 41.1229C58.8545 40.9652 57.7048 40.5832 57.8238 40.3904C57.9427 40.1972 59.9883 38.2862 59.9373 38.0921Z" fill="#1F1F1F"/>
<g clip-path="url(#clip1_21_7)">
<path d="M55.1735 26.881C55.1007 26.7862 54.7219 27.1187 54.6372 27.0742C54.5526 27.0297 54.5936 26.1031 54.4277 26.0299C54.2619 25.9566 53.8508 26.7292 53.7624 26.6966C53.6742 26.664 53.432 26.1836 53.3234 26.1849C53.2148 26.1862 53.1209 27.418 52.963 27.4027C52.805 27.3871 52.0634 25.7932 51.9796 25.8142C51.8958 25.8352 51.6532 26.3643 51.5929 26.3925C51.5325 26.4205 50.5731 25.834 50.4792 25.9063C50.3853 25.9785 50.7056 27.0564 50.6629 27.1074C50.6201 27.1584 50.0465 27.2569 50.0047 27.3325C49.9628 27.4081 51.3127 28.5343 51.2871 28.6911C51.2615 28.8477 50.047 28.622 50.0178 28.7266C49.9887 28.8312 50.3907 29.1887 50.3995 29.2823C50.4082 29.376 49.556 29.5748 49.5842 29.754C49.6125 29.9333 50.5185 30.1315 50.5397 30.2248C50.5608 30.3181 50.1423 30.5987 50.2152 30.6935C50.288 30.7882 51.9318 30.5209 52.0659 30.5352C52.2 30.5494 51.9613 31.2297 52.075 31.2359C52.2069 31.2432 52.5158 30.715 53.4084 30.0009L54.0481 30.8328C54.0761 30.8693 54.1176 30.8932 54.1633 30.8992C54.209 30.9051 54.2552 30.8927 54.2917 30.8646C54.3282 30.8365 54.3521 30.7951 54.3581 30.7494C54.364 30.7037 54.3516 30.6575 54.3235 30.621L53.6839 29.7891C54.6032 29.1101 55.1932 28.947 55.22 28.8177C55.243 28.7062 54.5244 28.7621 54.5451 28.6289C54.5658 28.4956 55.2463 26.9756 55.1735 26.881Z" fill="#1F1F1F"/>
</g>
<g clip-path="url(#clip2_21_7)">
<path d="M59.8369 31.1265C59.8449 31.0374 59.4678 31.0281 59.4439 30.9607C59.4199 30.8933 59.9125 30.4043 59.8584 30.2799C59.8042 30.1555 59.1862 30.372 59.1541 30.3092C59.1221 30.2465 59.2325 29.8593 59.1721 29.805C59.1117 29.7506 58.4352 30.3807 58.3561 30.2921C58.2771 30.2035 58.6776 28.9503 58.6209 28.9194C58.5641 28.8884 58.1623 29.0564 58.1148 29.0414C58.0673 29.0261 57.837 28.2168 57.7487 28.2089C57.6604 28.201 57.2898 28.9565 57.2404 28.9629C57.1911 28.9693 56.8255 28.7325 56.7641 28.7528C56.7028 28.7732 56.8741 30.0776 56.7805 30.1508C56.687 30.224 56.1333 29.4837 56.0642 29.5265C55.9951 29.5692 56.0349 29.9699 55.9923 30.0259C55.9495 30.0818 55.3798 29.7589 55.3045 29.8718C55.2291 29.9848 55.627 30.5534 55.5913 30.6155C55.5556 30.6775 55.183 30.6196 55.175 30.7087C55.167 30.7978 56.207 31.4845 56.2735 31.5605C56.3401 31.6363 55.8637 31.8895 55.9231 31.9506C55.9919 32.0215 56.4298 31.8876 57.2831 31.9475L57.2131 32.7297C57.21 32.764 57.2207 32.7982 57.2428 32.8247C57.2649 32.8511 57.2966 32.8677 57.3309 32.8708C57.3653 32.8739 57.3995 32.8632 57.4259 32.8411C57.4524 32.819 57.469 32.7872 57.4721 32.7529L57.5421 31.9707C58.3924 32.0635 58.7997 32.2731 58.88 32.2155C58.9492 32.1659 58.5255 31.8321 58.6045 31.7693C58.6835 31.7065 59.829 31.2154 59.8369 31.1265Z" fill="#1F1F1F"/>
</g>
</g>
<rect x="42.0455" y="17.4091" width="19" height="27" rx="9.5" stroke="#313131"/>
<path d="M0 43.9091V9H10.2273C12.1818 9 13.9091 9.4375 15.4091 10.3125C16.9205 11.1875 18.1023 12.392 18.9545 13.9261C19.8182 15.4602 20.25 17.2273 20.25 19.2273C20.25 21.2045 19.8182 22.9602 18.9545 24.4943C18.1023 26.017 16.9205 27.2159 15.4091 28.0909C13.9091 28.9545 12.1818 29.3864 10.2273 29.3864H0.545454V28.2955H10.2273C11.9773 28.2955 13.5227 27.9091 14.8636 27.1364C16.2045 26.3636 17.2557 25.2955 18.017 23.9318C18.7784 22.5682 19.1591 21 19.1591 19.2273C19.1591 17.4432 18.7784 15.8636 18.017 14.4886C17.2557 13.1136 16.2045 12.0398 14.8636 11.267C13.5227 10.483 11.9773 10.0909 10.2273 10.0909H1.09091V43.9091H0Z" fill="#313131"/>
<path d="M28.2912 43.9091V17.7273H29.3821V21.8864H29.5185C30.1321 20.5227 31.1378 19.4318 32.5355 18.6136C33.9446 17.7955 35.5526 17.3864 37.3594 17.3864C37.4957 17.3864 37.5866 17.3864 37.6321 17.3864C37.6776 17.3864 37.7685 17.3864 37.9048 17.3864V18.4773C37.7685 18.4773 37.6776 18.4773 37.6321 18.4773C37.5866 18.4773 37.4957 18.4773 37.3594 18.4773C35.8139 18.4773 34.4389 18.8125 33.2344 19.483C32.0412 20.1534 31.098 21.0795 30.4048 22.2614C29.723 23.4432 29.3821 24.7955 29.3821 26.3182V43.9091H28.2912Z" fill="#313131"/>
<path d="M69.4815 17.7273L77.1861 29.8295L84.8906 17.7273H86.1861L77.8338 30.8182L86.1861 43.9091H84.8906L77.1861 31.8068L62.5455 53.4091L59.0455 56.4091L76.5384 30.8182L68.1861 17.7273H69.4815Z" fill="#313131"/>
<path d="M93.9588 43.9091V17.7273H95.0497V43.9091H93.9588ZM94.5043 12.9545C94.2088 12.9545 93.9531 12.8466 93.7372 12.6307C93.5213 12.4148 93.4134 12.1591 93.4134 11.8636C93.4134 11.5682 93.5213 11.3125 93.7372 11.0966C93.9531 10.8807 94.2088 10.7727 94.5043 10.7727C94.7997 10.7727 95.0554 10.8807 95.2713 11.0966C95.4872 11.3125 95.5952 11.5682 95.5952 11.8636C95.5952 12.1591 95.4872 12.4148 95.2713 12.6307C95.0554 12.8466 94.7997 12.9545 94.5043 12.9545Z" fill="#313131"/>
<defs>
<clipPath id="clip0_21_7">
<rect x="41.5455" y="16.9091" width="20" height="28" rx="10" fill="white"/>
</clipPath>
<clipPath id="clip1_21_7">
<rect width="6.25465" height="6.25465" fill="white" transform="translate(48 27.8125) rotate(-37.5568)"/>
</clipPath>
<clipPath id="clip2_21_7">
<rect width="4.68059" height="4.68059" fill="white" transform="translate(55.4178 28) rotate(5.12068)"/>
</clipPath>
<pattern id="pattern0_21_7" patternUnits="userSpaceOnUse" viewBox="-402 102 4 4" width="20%" height="14.285714285714285%" x="8" y="12" patternContentUnits="objectBoundingBox">
<rect x="-401.9" y="102.1" width="3.8" height="3.8" stroke="black" stroke-width="0.2"/>
</pattern></defs>
</svg>
