<svg width="18" height="18" viewBox="0 0 18 18" fill="none" xmlns="http://www.w3.org/2000/svg">
<path fill-rule="evenodd" clip-rule="evenodd" d="M1.917 3.003C2.04794 2.99204 2.17975 3.00699 2.30491 3.047C2.43007 3.08701 2.54611 3.1513 2.64641 3.23618C2.74671 3.32106 2.8293 3.42488 2.88946 3.5417C2.94961 3.65852 2.98615 3.78605 2.997 3.917L3.846 14.165C3.8874 14.6651 4.1153 15.1314 4.48449 15.4713C4.85368 15.8112 5.33716 16 5.839 16H12.161C12.6628 16 13.1463 15.8112 13.5155 15.4713C13.8847 15.1314 14.1126 14.6651 14.154 14.165L15.004 3.917C15.0285 3.65464 15.1555 3.41255 15.3575 3.24334C15.5595 3.07413 15.8201 2.99148 16.0827 3.01335C16.3453 3.03522 16.5886 3.15985 16.7598 3.36014C16.931 3.56043 17.0163 3.82021 16.997 4.083L16.147 14.33C16.0642 15.3301 15.6085 16.2625 14.8704 16.9423C14.1322 17.6221 13.1655 17.9997 12.162 18H5.84C4.83615 18.0002 3.86893 17.6229 3.13035 16.943C2.39177 16.2631 1.93581 15.3304 1.853 14.33L1.003 4.083C0.992037 3.95206 1.00699 3.82024 1.047 3.69508C1.08701 3.56993 1.1513 3.45388 1.23618 3.35358C1.32106 3.25328 1.42488 3.17069 1.5417 3.11054C1.65852 3.05038 1.78605 3.01384 1.917 3.003Z" fill="#FF8484"/>
<path fill-rule="evenodd" clip-rule="evenodd" d="M0 4C0 3.73478 0.105357 3.48043 0.292893 3.29289C0.48043 3.10536 0.734784 3 1 3H17C17.2652 3 17.5196 3.10536 17.7071 3.29289C17.8946 3.48043 18 3.73478 18 4C18 4.26522 17.8946 4.51957 17.7071 4.70711C17.5196 4.89464 17.2652 5 17 5H1C0.734784 5 0.48043 4.89464 0.292893 4.70711C0.105357 4.51957 0 4.26522 0 4ZM7 6C7.26522 6 7.51957 6.10536 7.70711 6.29289C7.89464 6.48043 8 6.73478 8 7V13C8 13.2652 7.89464 13.5196 7.70711 13.7071C7.51957 13.8946 7.26522 14 7 14C6.73478 14 6.48043 13.8946 6.29289 13.7071C6.10536 13.5196 6 13.2652 6 13V7C6 6.73478 6.10536 6.48043 6.29289 6.29289C6.48043 6.10536 6.73478 6 7 6ZM11 6C11.2652 6 11.5196 6.10536 11.7071 6.29289C11.8946 6.48043 12 6.73478 12 7V11C12 11.2652 11.8946 11.5196 11.7071 11.7071C11.5196 11.8946 11.2652 12 11 12C10.7348 12 10.4804 11.8946 10.2929 11.7071C10.1054 11.5196 10 11.2652 10 11V7C10 6.73478 10.1054 6.48043 10.2929 6.29289C10.4804 6.10536 10.7348 6 11 6Z" fill="#FF8484"/>
<path fill-rule="evenodd" clip-rule="evenodd" d="M7.44099 2C7.23119 2.00016 7.02676 2.0663 6.85663 2.18905C6.6865 2.3118 6.55928 2.48496 6.49299 2.684L5.94899 4.316C5.86518 4.56769 5.68482 4.77578 5.44758 4.89449C5.21035 5.0132 4.93568 5.03281 4.68399 4.949C4.43229 4.86519 4.22421 4.68483 4.10549 4.4476C3.98678 4.21036 3.96718 3.93569 4.05099 3.684L4.59499 2.051C4.79415 1.45373 5.17617 0.93426 5.68696 0.566159C6.19774 0.198059 6.81139 -1.16875e-05 7.44099 5.17247e-10H10.558C11.1876 -1.16875e-05 11.8012 0.198059 12.312 0.566159C12.8228 0.93426 13.2048 1.45373 13.404 2.051L13.949 3.684C13.9905 3.80862 14.007 3.9402 13.9977 4.07122C13.9883 4.20224 13.9533 4.33013 13.8945 4.4476C13.8357 4.56506 13.7544 4.6698 13.6551 4.75583C13.5558 4.84186 13.4406 4.9075 13.316 4.949C13.1914 4.9905 13.0598 5.00704 12.9288 4.99769C12.7977 4.98834 12.6699 4.95327 12.5524 4.89449C12.3152 4.77578 12.1348 4.56769 12.051 4.316L11.507 2.684C11.4407 2.48512 11.3137 2.31208 11.1437 2.18934C10.9738 2.0666 10.7696 2.00037 10.56 2H7.44299H7.44099Z" fill="#FF8484"/>
</svg>
