<svg width="172" height="172" viewBox="0 0 172 172" fill="none" xmlns="http://www.w3.org/2000/svg">
<path d="M143.791 40.0857V39.885H143.648C136.74 31.3765 128.022 24.5162 118.127 19.8042C108.232 15.0922 97.4105 12.6471 86.4509 12.6471C75.4914 12.6471 64.67 15.0922 54.7752 19.8042C44.8803 24.5162 36.1614 31.3765 29.2538 39.885H29.1176V40.0857C18.4632 53.196 12.6471 69.5746 12.6471 86.4683C12.6471 103.362 18.4632 119.741 29.1176 132.851V133.052H29.2609C36.1686 141.56 44.8875 148.42 54.7823 153.133C64.6771 157.845 75.4986 160.29 86.4581 160.29C97.4176 160.29 108.239 157.845 118.134 153.133C128.029 148.42 136.748 141.56 143.655 133.052H143.806V132.851C154.46 119.741 160.276 103.362 160.276 86.4683C160.276 69.5746 154.46 53.196 143.806 40.0857H143.791ZM90.0343 39.885V20.3344C94.2809 22.1166 98.1001 24.7815 101.238 28.1521C104.377 31.5227 106.763 35.5221 108.238 39.885H90.0343ZM111.068 47.0517C114.905 58.6186 116.966 70.7003 117.182 82.885H90.0343V47.0517H111.068ZM82.8676 20.3344V39.885H64.6643C66.1393 35.5221 68.5251 31.5227 71.6635 28.1521C74.8018 24.7815 78.621 22.1166 82.8676 20.3344ZM82.8676 47.0517V82.885H55.7203C55.9357 70.7003 57.9968 58.6186 61.8334 47.0517H82.8676ZM48.5608 82.885H19.9873C20.6664 69.9406 25.1321 57.4806 32.8299 47.0517H54.2153C50.6451 58.6688 48.746 70.7331 48.5608 82.885ZM48.5608 90.0517C48.7437 102.203 50.6475 114.268 54.2153 125.885H32.8299C25.1321 115.456 20.6664 102.996 19.9873 90.0517H48.5608ZM55.7274 90.0517H82.8676V125.885H61.8334C57.9968 114.318 55.9357 102.236 55.7203 90.0517H55.7274ZM82.8676 133.052V152.602C78.621 150.82 74.8018 148.155 71.6635 144.785C68.5251 141.414 66.1393 137.415 64.6643 133.052H82.8676ZM90.0343 152.602V133.052H108.238C106.763 137.415 104.377 141.414 101.238 144.785C98.1001 148.155 94.2809 150.82 90.0343 152.602ZM90.0343 125.885V90.0517H117.182C116.966 102.236 114.905 114.318 111.068 125.885H90.0343ZM124.341 90.0517H152.915C152.235 102.996 147.77 115.456 140.072 125.885H118.687C122.257 114.268 124.156 102.204 124.341 90.0517ZM124.341 82.885C124.158 70.7335 122.254 58.6691 118.687 47.0517H140.072C147.77 57.4806 152.235 69.9406 152.915 82.885H124.341ZM134.03 39.885H116.107C113.634 33.6268 110.145 27.82 105.779 22.6994C116.49 25.9655 126.205 31.8757 134.03 39.885ZM67.1224 22.6994C62.7596 27.8206 59.2727 33.6273 56.8024 39.885H38.8643C46.6893 31.8757 56.4049 25.9655 67.1153 22.6994H67.1224ZM38.8714 133.052H56.7953C59.2677 139.31 62.7571 145.117 67.1224 150.237C56.4121 146.971 46.6964 141.061 38.8714 133.052ZM105.779 150.237C110.142 145.116 113.629 139.309 116.099 133.052H134.03C126.205 141.061 116.49 146.971 105.779 150.237Z" fill="url(#paint0_linear_5_78)"/>
<defs>
<linearGradient id="paint0_linear_5_78" x1="86.4617" y1="12.6471" x2="86.4617" y2="160.29" gradientUnits="userSpaceOnUse">
<stop stop-color="#F4F4F4"/>
<stop offset="0.755681" stop-color="#D9D9D9"/>
</linearGradient>
</defs>
</svg>

